<?xml version="1.0" encoding="utf-8"?>
<svg width="16px" height="16px" viewBox="0 0 16 16" version="1.1" xmlns:xlink="http://www.w3.org/1999/xlink" xmlns="http://www.w3.org/2000/svg">
  <defs>
    <path d="M7.56505 1.95971L9.54038 0L10.2273 0.901837L7.457 3.65019L6.77011 2.74837L6.77354 2.74495L6.0597 1.80775L4.07486 3.7769L3.38796 2.87507L3.39302 2.87005L3.38216 2.85579L3.38558 2.8524L2.67175 1.91521L0.686898 3.88436L0 2.98252L2.77027 0.234168L2.77161 0.235928L2.77769 0.229888L4.17708 2.06716L6.15242 0.107431L6.16462 0.123452L6.16565 0.12243L7.56505 1.95971L7.56505 1.95971Z" id="path_1" />
    <path d="M7.56505 1.95971L9.54038 0L10.2273 0.901837L7.457 3.65019L6.77011 2.74836L6.77354 2.74495L6.0597 1.80775L4.07486 3.7769L3.38796 2.87507L3.39302 2.87005L3.38216 2.85579L3.38558 2.8524L2.67175 1.91521L0.686898 3.88436L0 2.98252L2.77027 0.234168L2.77161 0.235929L2.77769 0.229889L4.17708 2.06716L6.15242 0.107431L6.16462 0.123452L6.16565 0.12243L7.56505 1.95971L7.56505 1.95971Z" id="path_2" />
    <clipPath id="clip_1">
      <use xlink:href="#path_1" clip-rule="evenodd" fill-rule="evenodd" />
    </clipPath>
    <clipPath id="clip_2">
      <use xlink:href="#path_2" clip-rule="evenodd" fill-rule="evenodd" />
    </clipPath>
    <clipPath id="clip_3">
      <use xlink:href="#path_2" />
    </clipPath>
  </defs>
  <g id="icon">
    <path d="M0 0L16 0L16 16L0 16L0 0Z" id="Rectangle" fill="#000000" fill-rule="evenodd" stroke="none" />
    <g id="Group" transform="translate(2.875 4.71875)">
      <g id="Rectangle-Mask" transform="translate(0 2.6781387)">
        <path d="M7.56505 1.95971L9.54038 0L10.2273 0.901837L7.457 3.65019L6.77011 2.74837L6.77354 2.74495L6.0597 1.80775L4.07486 3.7769L3.38796 2.87507L3.39302 2.87005L3.38216 2.85579L3.38558 2.8524L2.67175 1.91521L0.686898 3.88436L0 2.98252L2.77027 0.234168L2.77161 0.235928L2.77769 0.229888L4.17708 2.06716L6.15242 0.107431L6.16462 0.123452L6.16565 0.12243L7.56505 1.95971L7.56505 1.95971Z" id="Mask" fill="#FFFFFF" fill-rule="evenodd" stroke="none" />
        <g clip-path="url(#clip_1)">
          <path d="M4.98895 0.259101L6.11178 -0.730225L7.19305 0.830539L6.07022 1.81987L4.98895 0.259101Z" id="Rectangle" fill="#07FFC9" fill-rule="evenodd" stroke="none" />
        </g>
      </g>
      <g id="Rectangle-Mask">
        <g id="Mask">
          <use stroke="none" fill="#07FFC9" xlink:href="#path_2" fill-rule="evenodd" />
          <g clip-path="url(#clip_3)">
            <use xlink:href="#path_2" fill="none" stroke="#07FFC9" stroke-width="12" />
          </g>
        </g>
        <g clip-path="url(#clip_2)">
          <path d="M4.98895 0.259102L6.11178 -0.730225L7.19305 0.830539L6.07022 1.81986L4.98895 0.259102Z" id="Rectangle" fill="#FFFFFF" fill-rule="evenodd" stroke="none" />
        </g>
      </g>
    </g>
  </g>
</svg>