<?xml version="1.0" encoding="utf-8"?>
<svg width="1024px" height="1024px" viewBox="0 0 1024 1024" version="1.1" xmlns:xlink="http://www.w3.org/1999/xlink" xmlns="http://www.w3.org/2000/svg">
  <defs>
    <path d="M0 0L1024 0L1024 1024L0 1024L0 0Z" id="path_1" />
    <path d="M484.163 125.421L610.584 0L654.545 57.7176L477.248 233.612L433.287 175.895L433.507 175.677L387.821 115.696L260.791 241.722L216.829 184.005L217.153 183.683L216.458 182.77L216.677 182.554L170.992 122.574L43.9615 248.599L0 190.882L177.297 14.9867L177.383 15.0994L177.772 14.7129L267.333 132.298L393.755 6.87561L394.536 7.90094L394.602 7.83551L484.163 125.421L484.163 125.421Z" id="path_2" />
    <path d="M484.163 125.421L610.584 0L654.545 57.7176L477.248 233.612L433.287 175.895L433.507 175.677L387.821 115.696L260.791 241.722L216.829 184.005L217.153 183.683L216.458 182.77L216.677 182.554L170.992 122.573L43.9615 248.599L0 190.882L177.297 14.9867L177.383 15.0994L177.772 14.7129L267.333 132.298L393.755 6.87558L394.536 7.90094L394.602 7.83554L484.163 125.421L484.163 125.421Z" id="path_3" />
    <path d="M319.293 16.5829L391.154 -46.734L460.355 53.1549L388.494 116.472L319.293 16.5829Z" id="path_4" />
    <clipPath id="clip_1">
      <use xlink:href="#path_1" />
    </clipPath>
    <clipPath id="clip_2">
      <use xlink:href="#path_2" clip-rule="evenodd" fill-rule="evenodd" />
    </clipPath>
    <clipPath id="clip_3">
      <use xlink:href="#path_3" clip-rule="evenodd" fill-rule="evenodd" />
    </clipPath>
    <clipPath id="clip_4">
      <use xlink:href="#path_3" />
    </clipPath>
    <clipPath id="clip_5">
      <use xlink:href="#path_4" />
    </clipPath>
  </defs>
  <g id="icon_outline">
    <g id="Rectangle">
      <g clip-path="url(#clip_1)">
        <use xlink:href="#path_1" fill="none" stroke="#FFFFFF" stroke-width="62" />
      </g>
    </g>
    <g id="Group" transform="translate(184 302)">
      <g id="Rectangle-Mask" transform="translate(0 171.40097)">
        <path d="M484.163 125.421L610.584 0L654.545 57.7176L477.248 233.612L433.287 175.895L433.507 175.677L387.821 115.696L260.791 241.722L216.829 184.005L217.153 183.683L216.458 182.77L216.677 182.554L170.992 122.574L43.9615 248.599L0 190.882L177.297 14.9867L177.383 15.0994L177.772 14.7129L267.333 132.298L393.755 6.87561L394.536 7.90094L394.602 7.83551L484.163 125.421L484.163 125.421Z" id="Mask" fill="#FFFFFF" fill-rule="evenodd" stroke="none" />
        <g clip-path="url(#clip_2)">
          <path d="M319.293 16.5823L391.154 -46.7345L460.355 53.1544L388.494 116.471L319.293 16.5823Z" id="Rectangle" fill="#07FFC9" fill-rule="evenodd" stroke="none" />
        </g>
      </g>
      <g id="Rectangle-Mask">
        <g id="Mask">
          <g clip-path="url(#clip_4)">
            <use xlink:href="#path_3" fill="none" stroke="#07FFC9" stroke-width="28" />
          </g>
        </g>
        <g clip-path="url(#clip_3)">
          <g id="Rectangle">
            <g clip-path="url(#clip_5)">
              <use xlink:href="#path_4" fill="none" stroke="#000000" stroke-opacity="0" stroke-width="20" />
            </g>
          </g>
        </g>
      </g>
    </g>
  </g>
</svg>