<svg width="1024px" height="414px" viewBox="0 0 1024 414" version="1.1" xmlns:xlink="http://www.w3.org/1999/xlink" xmlns="http://www.w3.org/2000/svg"><defs><path d="M0 0L1024 0L1024 414L0 414L0 0Z" id="path_1"/><path d="M242.082 62.7106L305.292 0L327.273 28.8588L238.624 116.806L216.643 87.9477L216.753 87.8385L193.911 57.8481L130.395 120.861L108.415 92.0023L108.577 91.8415L108.229 91.3852L108.338 91.2769L85.4959 61.2868L21.9807 124.3L0 95.4408L88.6486 7.49338L88.6914 7.5497L88.8862 7.35643L133.667 66.1491L196.878 3.43781L197.268 3.95049L197.301 3.91776L242.082 62.7106L242.082 62.7106Z" id="path_2"/><path d="M242.082 62.7106L305.292 0L327.273 28.8588L238.624 116.806L216.643 87.9477L216.753 87.8385L193.911 57.8481L130.395 120.861L108.415 92.0024L108.577 91.8415L108.229 91.3852L108.338 91.2769L85.4959 61.2867L21.9807 124.3L0 95.4408L88.6486 7.49336L88.6914 7.54971L88.8862 7.35645L133.667 66.149L196.878 3.43779L197.268 3.95047L197.301 3.91777L242.082 62.7106L242.082 62.7106Z" id="path_3"/><path d="M159.647 8.29141L195.577 -23.367L230.177 26.5774L194.247 58.2358L159.647 8.29141Z" id="path_4"/><clipPath id="clip_1"><use xlink:href="#path_1"/></clipPath><clipPath id="clip_2"><use xlink:href="#path_2" clip-rule="evenodd" fill-rule="evenodd"/></clipPath><clipPath id="clip_3"><use xlink:href="#path_3" clip-rule="evenodd" fill-rule="evenodd"/></clipPath><clipPath id="clip_4"><use xlink:href="#path_3"/></clipPath><clipPath id="clip_5"><use xlink:href="#path_4"/></clipPath></defs><g id="icon_outline"><g id="Rectangle"><g clip-path="url(#clip_1)"><use xlink:href="#path_1" fill="none" stroke="#FFFFFF" stroke-width="42"/></g></g><g id="Group" transform="translate(350 100)"><g id="Rectangle-Mask" transform="translate(0 85.7005)"><path d="M242.082 62.7106L305.292 0L327.273 28.8588L238.624 116.806L216.643 87.9477L216.753 87.8385L193.911 57.8481L130.395 120.861L108.415 92.0023L108.577 91.8415L108.229 91.3852L108.338 91.2769L85.4959 61.2868L21.9807 124.3L0 95.4408L88.6486 7.49338L88.6914 7.5497L88.8862 7.35643L133.667 66.1491L196.878 3.43781L197.268 3.95049L197.301 3.91776L242.082 62.7106L242.082 62.7106Z" id="Mask" fill="#FFFFFF" fill-rule="evenodd" stroke="none"/><g clip-path="url(#clip_2)"><path d="M159.647 8.29117L195.577 -23.3672L230.177 26.5772L194.247 58.2356L159.647 8.29117Z" id="Rectangle" fill="#07FFC9" fill-rule="evenodd" stroke="none"/></g></g><g id="Rectangle-Mask"><g id="Mask"><g clip-path="url(#clip_4)"><use xlink:href="#path_3" fill="none" stroke="#07FFC9" stroke-width="18"/></g></g><g clip-path="url(#clip_3)"><g id="Rectangle"><g clip-path="url(#clip_5)"><use xlink:href="#path_4" fill="none" stroke="#000000" stroke-opacity="0" stroke-width="20"/></g></g></g></g></g></g></svg>