<?xml version="1.0" encoding="utf-8"?>
<svg width="1024px" height="414px" viewBox="0 0 1024 414" version="1.1" xmlns:xlink="http://www.w3.org/1999/xlink" xmlns="http://www.w3.org/2000/svg">
  <defs>
    <path d="M0 0L1024 0L1024 414L0 414L0 0Z" id="path_1" />
    <path d="M242.082 62.7108L305.292 0L327.273 28.859L238.624 116.807L216.644 87.9481L216.753 87.8387L193.911 57.8482L130.395 120.861L108.415 92.0026L108.577 91.8417L108.229 91.3855L108.338 91.277L85.4959 61.2869L21.9807 124.3L0 95.4409L88.6486 7.49367L88.6914 7.54945L88.8863 7.35632L133.667 66.1491L196.878 3.43768L197.268 3.95068L197.301 3.91777L242.082 62.7108L242.082 62.7108Z" id="path_2" />
    <path d="M242.082 62.7106L305.292 0L327.273 28.8589L238.624 116.806L216.644 87.9477L216.753 87.8385L193.911 57.8481L130.395 120.861L108.415 92.0025L108.577 91.8416L108.229 91.3852L108.338 91.277L85.4959 61.2867L21.9807 124.3L0 95.4408L88.6486 7.49334L88.6914 7.54969L88.8863 7.35645L133.667 66.149L196.878 3.43768L197.268 3.95046L197.301 3.91781L242.082 62.7106L242.082 62.7106Z" id="path_3" />
    <clipPath id="clip_1">
      <use xlink:href="#path_1" />
    </clipPath>
    <clipPath id="clip_2">
      <use xlink:href="#path_2" clip-rule="evenodd" fill-rule="evenodd" />
    </clipPath>
    <clipPath id="clip_3">
      <use xlink:href="#path_3" clip-rule="evenodd" fill-rule="evenodd" />
    </clipPath>
    <clipPath id="clip_4">
      <use xlink:href="#path_3" />
    </clipPath>
  </defs>
  <g id="logo">
    <g id="Rectangle">
      <g clip-path="url(#clip_1)">
        <use xlink:href="#path_1" fill="none" stroke="#FFFFFF" stroke-width="42" />
      </g>
    </g>
    <g id="Group" transform="translate(350.00003 100)">
      <g id="Rectangle-Mask" transform="translate(0 85.70041)">
        <path d="M242.082 62.7108L305.292 0L327.273 28.859L238.624 116.807L216.644 87.9481L216.753 87.8387L193.911 57.8482L130.395 120.861L108.415 92.0026L108.577 91.8417L108.229 91.3855L108.338 91.277L85.4959 61.2869L21.9807 124.3L0 95.4409L88.6486 7.49367L88.6914 7.54945L88.8863 7.35632L133.667 66.1491L196.878 3.43768L197.268 3.95068L197.301 3.91777L242.082 62.7108L242.082 62.7108Z" id="Mask" fill="#FFFFFF" fill-rule="evenodd" stroke="none" />
        <g clip-path="url(#clip_2)">
          <path d="M159.646 8.29118L195.577 -23.3672L230.177 26.5772L194.246 58.2356L159.646 8.29118Z" id="Rectangle" fill="#07FFC9" fill-rule="evenodd" stroke="none" />
        </g>
      </g>
      <g id="Rectangle-Mask">
        <g id="Mask">
          <use stroke="none" fill="#07FFC9" xlink:href="#path_3" fill-rule="evenodd" />
          <g clip-path="url(#clip_4)">
            <use xlink:href="#path_3" fill="none" stroke="#07FFC9" stroke-width="12" />
          </g>
        </g>
        <g clip-path="url(#clip_3)">
          <path d="M159.646 8.29138L195.577 -23.3671L230.177 26.5774L194.246 58.2358L159.646 8.29138Z" id="Rectangle" fill="#FFFFFF" fill-rule="evenodd" stroke="none" />
        </g>
      </g>
    </g>
  </g>
</svg>